<?xml version="1.0" encoding="utf-8"?>
<!-- Generator: Adobe Illustrator 22.1.0, SVG Export Plug-In . SVG Version: 6.00 Build 0)  -->
<svg version="1.1" id="Layer_1" xmlns="http://www.w3.org/2000/svg" xmlns:xlink="http://www.w3.org/1999/xlink" x="0px" y="0px"
	 viewBox="0 0 32 32" style="enable-background:new 0 0 32 32;" xml:space="preserve">
<style type="text/css">
	.st0{display:none;}
	.st1{display:inline;}
	.st2{fill:#333333;}
	.st3{display:inline;fill:#FFFFFF;}
	.st4{fill:#FFFFFF;}
</style>
<g id="Style_2_copy_3" class="st0">
	<g class="st1">
		<g>
			<path class="st2" d="M16,0C7.2,0,0,7.2,0,16c0,8.8,7.2,16,16,16s16-7.2,16-16C32,7.2,24.8,0,16,0z"/>
		</g>
	</g>
	<path class="st3" d="M16,5.5c-3.7,0-6.8,3-6.8,6.8c0,0.6,0.1,1.2,0.2,1.8c0.1,0.2,0.1,0.5,0.2,0.7l0.2,0.5L16,26.5l6.1-11.2
		l0.2-0.4c0.1-0.2,0.2-0.5,0.2-0.7c0.2-0.6,0.2-1.2,0.2-1.8C22.8,8.6,19.7,5.5,16,5.5z M16,15.2c-1.6,0-3-1.3-3-3s1.3-3,3-3
		s3,1.3,3,3C19,13.9,17.6,15.2,16,15.2z"/>
</g>
<g>
	<path class="st4" d="M16,1c8.3,0,15,6.7,15,15s-6.7,15-15,15S1,24.3,1,16S7.7,1,16,1 M16,0C7.2,0,0,7.2,0,16s7.2,16,16,16
		s16-7.2,16-16S24.8,0,16,0L16,0z"/>
</g>
<path class="st4" d="M16,26.5V15.2c0.2,0,1.4,0,2.2-1c0.7-0.8,0.8-1.8,0.8-2c0-0.3-0.1-1.1-0.7-1.9c-0.9-1.1-2.2-1.1-2.3-1.1
	c0-1.2,0-2.5,0-3.7c0.5,0,2.8,0.1,4.7,1.9c1.9,1.8,2.1,4,2.1,4.5c0,2.4-0.7,3.3-1.6,5C19.2,20.7,17.5,24,16,26.5z"/>
<path class="st4" d="M16,26.5V15.2c-0.2,0-1.4,0-2.2-1c-0.7-0.8-0.8-1.8-0.8-2c0-0.3,0.1-1.1,0.7-1.9c0.9-1.1,2.2-1.1,2.3-1.1
	c0-1.2,0-2.5,0-3.7c-0.5,0-2.8,0.1-4.7,1.9c-1.9,1.8-2.1,4-2.1,4.5c0,2.4,0.7,3.3,1.6,5C12.8,20.7,14.5,24,16,26.5z"/>
</svg>
