<?xml version="1.0" encoding="utf-8"?>
<!-- Generator: Adobe Illustrator 22.1.0, SVG Export Plug-In . SVG Version: 6.00 Build 0)  -->
<svg version="1.1" id="Layer_1" xmlns="http://www.w3.org/2000/svg" xmlns:xlink="http://www.w3.org/1999/xlink" x="0px" y="0px"
	 viewBox="0 0 600 600" style="enable-background:new 0 0 600 600;" xml:space="preserve">
<style type="text/css">
	.st0{fill:none;stroke:#000000;stroke-miterlimit:10;}
	.st1{fill:#FDD9B4;stroke:#000000;stroke-miterlimit:10;}
	.st2{fill:#FDD6A0;stroke:#000000;stroke-miterlimit:10;}
</style>
<g>
	<path class="st0" d="M134.7,423.9"/>
	<path class="st1" d="M267.6,472"/>
	<path class="st2" d="M141.6,302c7.7-45.3,8.4-66.5,16.3-113c1.7-9.9,3.2-17.9,4.1-22.5c-14.6-30.4-16.3-37.4-28.8-65.6
		c-0.8-1.8-2.7-3.5-5.4-3.3c-2.3,0.2-4.4,1.4-5.6,3.3c0,0.1-0.1,0.1-0.1,0.2c-5.1,8-6.9,17.8-5.2,27.2c9.3,51,29,93.2,34.9,99.7
		l-1.8,12c-12.5-27.2-27.3-65.5-48.5-112.2c-0.5-1.1-0.9-1.4-1.8-3.3c-2.5-5-11.6-17.6-11.7-17.7c-7.8-9.1-16.9-5.3-20.6,6.1
		c-1.5,4.7-1.4,19.2,3.8,30.7c1.8,1.4,3.6,3.2,5.2,5.3c7.9,10,7.8,21.8,7.5,26.7l1.5,11.7c1,8.1,3.2,16,6.2,23.6
		c1.7,4.1,3.3,8.4,5,12.7c4.2,11.2,7.9,22.1,11.1,32.5c2.5,11.5,6.2,24.5,11.7,38.6c6.3,16.4,10.2,24.5,16.9,35.7
		C136.9,319,140.9,313.4,141.6,302z"/>
	<path class="st2" d="M393.3,119.3c1.3-0.6,2.7-1,4-1.1c22.4-2.2,45,63.4,48.7,74.3c5.1,7.3,10.7,16.7,15.6,28.2
		c2,4.7,3.7,9.2,5.2,13.5c3.3,10,3.2,20.7-0.1,30.7c-3.2,9.8-6.1,21.7-7.2,35.4c-0.9,12-0.3,22.5,0.8,31.2c-1.5,16.7-6,28.5-10,36.3
		c-3.7,7.2-7.4,12-12.5,23.2c-4,8.7-6.6,16.2-8.1,21.3c7.9,11.8,18.7,25.9,33.2,40.1C479,468,537.7,497,550.7,505
		c-24,36.1-66,69.7-108.3,95c-18.3-15.4-47.4-35.9-74.7-50.1c-8.6-4.5-17-14-25.2-17.5"/>
	<path class="st2" d="M316.7,382.7c-1.7,23.3-3.8,47.3-6.5,72c-2.1,18.6-4.4,36.8-6.9,54.4l-17.8-8.4c-1.2-1.7-1.3-3.4-1.3-4
		c0.9-32,3.3-66.7,8.2-103.6c2.6-19.6,11-60.9,14.4-78.9c2.7,5.5,8.2,31.3,9.1,38.5C317.2,364.9,315.2,374.6,316.7,382.7z"/>
	<path class="st1" d="M398.4,290.5c-8.9,34.5-18.7,66.8-29,97.1c-8.6,48.4-17.3,96.8-25.9,145.3c-0.3,1.7-0.6,3.4-0.9,5.1
		c-0.2,1.7-8.3,37.6-20.5,42.3c-1.3,0.5-3,0.3-4.7,0c-1.5-0.8-3.2-1.3-4.1-2.6c-16.5-22.8-12-59.2-9.9-68.5
		c2.5-17.7,4.8-35.8,6.9-54.4c2.7-24.7,4.9-48.7,6.5-72c-1.5-8.2,0.5-17.8-0.9-30c-0.9-7.2-6.4-33-9.1-38.5
		c-3.4,17.9-11.8,59.2-14.4,78.9c-4.9,36.9-7.3,71.6-8.2,103.6c0,0.6,0.1,2.3,1.3,4c1.2,1.8,2.9,2.5,3.5,2.7
		c-0.5,2.2-2.3,9.2-8.8,14.7c-0.3,0.3-0.7,0.5-1,0.8c-7.9,6.1-19.2,5.3-26.5-1.4c-2-1.8-4.1-4.1-6-6.8c-9.3-13.4-7.1-28-6.6-31.3
		c1.2-20.6,2.8-37.4,4.1-48.8c4.4-41.2,9-60.6,10-96.4c0.4-13.1,0.2-23.8,0-30.7c-8.3,43.2-21.1,88.2-25.2,131
		c-0.2,2.1-0.6,4.3-1.1,6.4c-1.9,8.3,1.4,22.2-0.3,34.3c-0.2,1.1-0.4,2.3-0.6,3.4c-2.2,9.5-3.5,11.3-13.7,14.2
		c-17.9,1-25.3-23.2-30.5-45.4c-0.9-3.7-1.7-7.4-2.5-10.9c-1-4.6-1.3-9.4-0.8-14.1c1-9.5,2.4-19.4,4.2-29.7l5.6-99.1
		c-9.5,46.7-14.9,93.9-21.5,141.2c-0.2,1.5,0,3.1,0.6,4.5c0.3,0.8,0.8,1.7,1.4,2.4c3.3,4,6.8,9.4,9.5,16.2c1.2,3.1,2,6,2.6,8.6
		c0,0.9-0.3,1.8-1.8,2.9c-2.4,1.7-5.5,2.1-8.3,1c-3.3-1.3-6.7-3-10.2-5.3c-19.5-12.7-25.2-34.1-26.8-41.2c-0.6-5-1.1-10.2-1.4-15.4
		c-0.7-10.7-1-21.1-0.8-31.3v-0.1c0,0,0-0.1,0-0.1v0c0.3-15.9,1.6-31,3.7-45.4c0,0,0,0,0-0.1v0c0,0,0,0,0,0
		c1.5-10.2,3.3-20,5.4-29.4c0.3-6,0.9-12,1.7-18l6.7-44l1.8-12l3.6-23.8c1-10.8,2.9-23.6,6.6-37.7c3.6-13.6,8-25.4,12.4-35.1
		c3-9,5.9-18.8,8.4-29.4c1.7-6.9,3.1-13.6,4.3-20.1c1.7-8.8,4.1-17.4,7.5-25.7l15-42.1c20.6-6.9,52.5-15,92-14.2
		c34.2,0.7,62.1,7.7,81.2,14.2c1.2,25.1,4.9,51.2,6.8,78.8c0.7,9.9,2.1,18.7,3.7,26.3c-10.6,5.3-12.1,24-9.6,41.3
		c0.7,4.9,1.7,9.6,2.8,14.1v0c7.7,32.1,22.7,52.3,24.1,64.3C412.5,256.1,402.9,272.9,398.4,290.5z"/>
	<polyline class="st1" points="303.3,509.2 288.9,503.4 285.5,500.7 	"/>
	<path class="st2" d="M179.5,422.5c-0.5,4.7-0.3,9.5,0.8,14.1c0.8,3.5,1.6,7.2,2.5,10.9l-7.2-4.1l-5.3-3c-0.6-0.3-1.2-0.7-1.9-1.1
		c-0.6-1.4-0.8-3-0.6-4.5c6.6-47.3,12-94.5,21.5-141.2l-5.6,99.1C181.9,403.1,180.6,413,179.5,422.5z"/>
	<path class="st1" d="M182.8,447.5c-2.6-1.4-4.9-2.8-7.2-4.1L182.8,447.5z"/>
	<path class="st2" d="M254.2,334.3c-1.1,35.8-5.6,55.2-10,96.4c-1.2,11.4-2.8,28.2-4.1,48.8l-12.5-4.2c1.7-12.1-1.5-26,0.3-34.3
		c0.5-2.1,0.9-4.2,1.1-6.4c4.1-42.9,16.9-87.9,25.2-131C254.4,310.5,254.6,321.2,254.2,334.3z"/>
	<path class="st2" d="M386.8,175.7c-1.5-5.3-2.9-11.8-3.5-19.3c-0.6-7.3-0.4-13.7,0.1-19c0.1-2.3,0.6-7.6,4.3-12.7
		c1.9-2.6,4.1-4.3,5.7-5.3"/>
	<path class="st2" d="M136.2,331.6c-5.2-6.2-7.3-9-12.7-17.4c-5-7.9-9.1-15.4-12.4-22.3c-4.2-10.8-8.3-22.5-12-35
		c-8.7-29.8-13.2-57.4-15.3-81.2c0.4-3.4,0.7-11.1-3.2-19.5c-2.9-6.3-7-10.3-9.6-12.5c-1-0.4-1.9-0.6-2.7-0.6
		c-11.4,0.5-17.9,37.2-18.8,42.4c-0.9,21.2,0.9,45,8.1,70.1c0.9,3,1.8,5.9,2.7,8.8c2.5-0.7,4.4-0.4,5.7,0c6.4,1.9,10.6,11.2,10,23
		c0.5,8,1.7,16.9,3.8,26.5c1.1,4.8,2.2,9.4,3.5,13.6c3.7,5.3,7.9,10.8,12.4,16.4c2.3,2.8,4.5,5.4,6.8,8c3.5,3.9,7.4,7.9,12,12
		c7.4,6.6,11.4,9.2,17.9,13.3C133.8,362.7,134.9,346.2,136.2,331.6z"/>
	<path class="st2" d="M132.5,377c-5.7-2.4-8.9-2.8-15.6-7c-4.7-3-8.8-6-12.4-8.9c-3.7-3.2-8.4-8.1-12.7-14.8
		c-4.6-7.2-7.1-13.9-8.4-18.8c-3.4-16.8-6.5-29.9-7.2-38.9c-0.8-11.2-3.4-22-10.1-24.3c-2.1-0.7-4.2-0.4-5.7,0
		c-4.9,3.8-8.2,9.6-9.1,14.4c-7.8,43.1,10.1,73.3,14,79c7.8,12.8,19.3,28.8,35.7,44.6c11.9,11.5,25.1,22,35.2,28.5
		c-1.2-6.2-3.5-15.4-3.5-23.8C132.6,396.3,130.9,384.2,132.5,377z"/>
</g>
</svg>
