<?xml version="1.0" encoding="utf-8"?>
<!-- Generator: Adobe Illustrator 22.1.0, SVG Export Plug-In . SVG Version: 6.00 Build 0)  -->
<svg version="1.1" id="Layer_1" xmlns="http://www.w3.org/2000/svg" xmlns:xlink="http://www.w3.org/1999/xlink" x="0px" y="0px"
	 viewBox="0 0 900 900" style="enable-background:new 0 0 900 900;" xml:space="preserve">
<style type="text/css">
	.st0{fill:none;stroke:#000000;stroke-width:21;stroke-miterlimit:10;}
	.st1{fill:none;stroke:#000000;stroke-width:37;stroke-miterlimit:10;}
</style>
<path class="st0" d="M631.9,329.6H267.8c-9.4,0-18.4-4.2-24.5-11.4l-1.1-1.4c-9-10.7-9.4-26.1-1-37.3l0,0
	c6.4-8.5,16.5-13.5,27.1-13.5h363.1"/>
<path class="st0" d="M631.8,329.6c9.4,0,18.4-4.2,24.5-11.4l1.1-1.4c9-10.7,9.4-26.1,1-37.3l0,0C652,271,641.9,266,631.3,266"/>
<path class="st0" d="M632.1,481.7H268c-9.4,0-18.4-4.2-24.5-11.4l-1.1-1.4c-9-10.7-9.4-26.1-1-37.3l0,0c6.4-8.5,16.5-13.5,27.1-13.5
	h363.1"/>
<path class="st0" d="M632,481.7c9.4,0,18.4-4.2,24.5-11.4l1.1-1.4c9-10.7,9.4-26.1,1-37.3l0,0c-6.4-8.5-16.5-13.5-27.1-13.5"/>
<path class="st0" d="M632.1,633.9H268c-9.4,0-18.4-4.2-24.5-11.4l-1.1-1.4c-9-10.7-9.4-26.1-1-37.3l0,0c6.4-8.5,16.5-13.5,27.1-13.5
	h363.1"/>
<path class="st0" d="M632,633.9c9.4,0,18.4-4.2,24.5-11.4l1.1-1.4c9-10.7,9.4-26.1,1-37.3l0,0c-6.4-8.5-16.5-13.5-27.1-13.5"/>
<circle class="st1" cx="450" cy="450" r="431.3"/>
</svg>
